<svg width="512" height="512" viewBox="0 0 512 512" xmlns="http://www.w3.org/2000/svg">
  <defs>
    <radialGradient id="bg" cx="0.3" cy="0.3" r="0.8">
      <stop offset="0%" style="stop-color:#0f172a"/>
      <stop offset="100%" style="stop-color:#020617"/>
    </radialGradient>
    <radialGradient id="node" cx="0.3" cy="0.3" r="0.7">
      <stop offset="0%" style="stop-color:#67e8f9"/>
      <stop offset="100%" style="stop-color:#06b6d4"/>
    </radialGradient>
    <linearGradient id="glow" x1="0%" y1="0%" x2="100%" y2="100%">
      <stop offset="0%" style="stop-color:#22d3ee;stop-opacity:0.3"/>
      <stop offset="100%" style="stop-color:#0891b2;stop-opacity:0"/>
    </linearGradient>
  </defs>

  <rect width="512" height="512" rx="96" fill="url(#bg)"/>
  <circle cx="256" cy="256" r="200" fill="url(#glow)"/>

  <g stroke="#06b6d4" stroke-width="3" stroke-opacity="0.5" fill="none" transform="translate(106,86) scale(1.8)">
    <path d="M120 60 L140 80 L160 60 L180 80 L200 60"/>
    <path d="M120 60 L100 40 L80 60 L100 80 L120 100"/>
    <path d="M160 60 L180 40 L200 60 L220 80 L200 100"/>
    <path d="M140 80 L120 100 L100 120 L80 140 L60 160"/>
    <path d="M180 80 L200 100 L220 120 L240 140 L260 160"/>
    <path d="M100 40 L120 20 L140 40 L160 20 L180 40"/>
    <path d="M80 140 L100 160 L120 140 L140 160 L160 140"/>
    <line x1="140" y1="80" x2="160" y2="100"/>
    <line x1="100" y1="80" x2="120" y2="100"/>
    <line x1="180" y1="60" x2="200" y2="80"/>
  </g>

  <g fill="url(#node)" stroke="#06b6d4" stroke-width="1" transform="translate(106,86) scale(1.8)">
    <circle cx="140" cy="80" r="12"/>
    <circle cx="160" cy="100" r="9"/>
    <circle cx="120" cy="100" r="9"/>
    <circle cx="100" cy="40" r="7.5"/>
    <circle cx="140" cy="40" r="6"/>
    <circle cx="180" cy="40" r="7.5"/>
    <circle cx="120" cy="20" r="6"/>
    <circle cx="160" cy="20" r="6"/>
    <circle cx="80" cy="140" r="7.5"/>
    <circle cx="120" cy="140" r="6"/>
    <circle cx="160" cy="140" r="7.5"/>
    <circle cx="200" cy="120" r="6"/>
    <circle cx="240" cy="140" r="6"/>
    <circle cx="80" cy="60" r="6"/>
    <circle cx="200" cy="60" r="6"/>
    <circle cx="220" cy="80" r="6"/>
    <circle cx="100" cy="120" r="6"/>
    <circle cx="60" cy="160" r="9"/>
    <circle cx="260" cy="160" r="9"/>
  </g>
</svg>
